<svg width="16" height="16" viewBox="0 0 16 16" fill="none" xmlns="http://www.w3.org/2000/svg">
<path d="M10 2.5V1M10 2.5V4M10 2.5H6.625M1 7V13.75C1 14.1478 1.15804 14.5294 1.43934 14.8107C1.72064 15.092 2.10218 15.25 2.5 15.25H13C13.3978 15.25 13.7794 15.092 14.0607 14.8107C14.342 14.5294 14.5 14.1478 14.5 13.75V7M1 7H14.5M1 7V4C1 3.60218 1.15804 3.22064 1.43934 2.93934C1.72064 2.65804 2.10218 2.5 2.5 2.5H4M14.5 7V4C14.5 3.60218 14.342 3.22064 14.0607 2.93934C13.7794 2.65804 13.3978 2.5 13 2.5H12.625M4 1V4" stroke="#3C3B39" stroke-width="1.5" stroke-linecap="round" stroke-linejoin="round"/>
</svg>
