<svg width="20" height="20" viewBox="0 0 20 20" fill="none" xmlns="http://www.w3.org/2000/svg">
<path d="M12.6761 12.8387L12.6685 12.8382L12.6609 12.838L12.5143 12.8339L12.5072 12.8337H12.5001H5.83344C5.83343 12.8337 5.83342 12.8337 5.83342 12.8337C5.06821 12.8336 4.33192 13.126 3.77518 13.6509C3.21844 14.1759 2.88334 14.8938 2.83844 15.6577L2.838 15.6652L2.83778 15.6728L2.83362 15.8195L2.83341 15.8266V15.8337V17.5C2.83326 17.5849 2.80073 17.6665 2.74247 17.7282C2.68414 17.79 2.60443 17.8272 2.51962 17.8322C2.4348 17.8371 2.35129 17.8095 2.28614 17.755C2.2239 17.7029 2.1829 17.63 2.17062 17.55L2.16675 17.4854V15.8337C2.16675 15.8337 2.16675 15.8337 2.16675 15.8337C2.16681 14.8888 2.53162 13.9804 3.1851 13.298C3.83745 12.6167 4.72719 12.2131 5.66935 12.1709L5.83918 12.167H12.5001C12.5001 12.167 12.5001 12.167 12.5001 12.167C13.4449 12.1671 14.3533 12.5319 15.0358 13.1853C15.717 13.8377 16.1206 14.7274 16.1628 15.6696L16.1667 15.8394V17.4998C16.1667 17.5847 16.1341 17.6664 16.0758 17.7282C16.0175 17.79 15.9378 17.8272 15.853 17.8322C15.7681 17.8371 15.6846 17.8095 15.6195 17.755C15.5572 17.7029 15.5162 17.63 15.504 17.55L15.5001 17.4854V15.8337C15.5001 15.8337 15.5001 15.8337 15.5001 15.8337C15.5001 15.0685 15.2078 14.3322 14.6828 13.7754C14.1578 13.2187 13.44 12.8836 12.6761 12.8387ZM17.5001 11.3337C17.5885 11.3337 17.6733 11.3688 17.7358 11.4313C17.7983 11.4938 17.8334 11.5786 17.8334 11.667C17.8334 11.7554 17.7983 11.8402 17.7358 11.9027C17.6733 11.9652 17.5885 12.0003 17.5001 12.0003H16.6667C16.5783 12.0003 16.4936 11.9652 16.431 11.9027C16.3685 11.8402 16.3334 11.7554 16.3334 11.667C16.3334 11.5786 16.3685 11.4938 16.431 11.4313C16.4936 11.3688 16.5783 11.3337 16.6667 11.3337H17.5001ZM9.16675 2.16699C10.1392 2.16699 11.0718 2.5533 11.7595 3.24093C12.4471 3.92857 12.8334 4.8612 12.8334 5.83366C12.8334 6.80612 12.4471 7.73875 11.7595 8.42638C11.0718 9.11402 10.1392 9.50033 9.16675 9.50033C8.19429 9.50033 7.26166 9.11402 6.57402 8.42638C5.88639 7.73875 5.50008 6.80612 5.50008 5.83366C5.50008 4.8612 5.88639 3.92857 6.57402 3.24093C7.26166 2.5533 8.19429 2.16699 9.16675 2.16699ZM17.5001 8.83366C17.5885 8.83366 17.6733 8.86878 17.7358 8.93129C17.7983 8.9938 17.8334 9.07859 17.8334 9.16699C17.8334 9.2554 17.7983 9.34018 17.7358 9.40269C17.6733 9.46521 17.5885 9.50033 17.5001 9.50033H15.8334C15.745 9.50033 15.6602 9.46521 15.5977 9.40269C15.5352 9.34018 15.5001 9.2554 15.5001 9.16699C15.5001 9.07859 15.5352 8.9938 15.5977 8.93129C15.6602 8.86878 15.745 8.83366 15.8334 8.83366H17.5001ZM9.16675 2.83366C8.77278 2.83366 8.38267 2.91126 8.0187 3.06202C7.65472 3.21278 7.324 3.43376 7.04543 3.71234C6.76685 3.99091 6.54587 4.32163 6.39511 4.68561C6.24435 5.04959 6.16675 5.43969 6.16675 5.83366C6.16675 6.22762 6.24435 6.61773 6.39511 6.98171C6.54587 7.34569 6.76685 7.6764 7.04543 7.95498C7.324 8.23356 7.65472 8.45453 8.0187 8.6053C8.38268 8.75606 8.77278 8.83366 9.16675 8.83366C9.9624 8.83366 10.7255 8.51759 11.2881 7.95498C11.8507 7.39237 12.1667 6.62931 12.1667 5.83366C12.1667 5.03801 11.8507 4.27495 11.2881 3.71234C10.7255 3.14973 9.9624 2.83366 9.16675 2.83366ZM17.4995 6.33366C17.4996 6.33366 17.4997 6.33366 17.4998 6.33366C17.5847 6.33383 17.6663 6.36635 17.728 6.42461C17.7898 6.48293 17.8269 6.56264 17.8319 6.64746C17.8369 6.73227 17.8093 6.81579 17.7548 6.88094C17.7027 6.94318 17.6298 6.98417 17.5498 6.99646L17.4851 7.00033L15.0006 7.00033C15.0005 7.00033 15.0004 7.00033 15.0003 7.00033C14.9155 7.00015 14.8339 6.96763 14.7722 6.90938C14.7104 6.85105 14.6732 6.77134 14.6682 6.68653C14.6633 6.60171 14.6909 6.5182 14.7454 6.45305C14.7975 6.39081 14.8704 6.34981 14.9504 6.33753L15.015 6.33366L17.4995 6.33366Z" fill="black" stroke="#636260"/>
</svg>
