<svg width="16" height="17" viewBox="0 0 16 17" fill="none" xmlns="http://www.w3.org/2000/svg">
<path d="M15.0856 10.988L12.1322 8.8853C12.102 8.86364 12.0664 8.85079 12.0293 8.84816C11.9923 8.84553 11.9552 8.85324 11.9223 8.87042C11.8544 8.9053 11.8128 8.98146 11.8127 9.0581L11.8141 10.0535H9.15713C9.04417 10.0535 8.93457 10.133 8.93457 10.2461V12.0768C8.93457 12.1899 9.04417 12.2679 9.15713 12.2679H11.841V13.2711C11.841 13.3475 11.8704 13.4178 11.9384 13.4528C12.0064 13.4879 12.0749 13.4819 12.1371 13.4373L15.0863 11.3208C15.1399 11.2826 15.1626 11.2207 15.1626 11.1547V11.1544C15.1626 11.0882 15.1395 11.0264 15.0856 10.988Z" fill="#3C3B39"/>
<path d="M10.2499 13.0686H9.21149C9.13808 13.0686 9.06767 13.0977 9.01576 13.1496C8.96385 13.2015 8.93469 13.2719 8.93469 13.3454H8.93357V13.827H2.43085V6.28568H5.26653C5.33994 6.28568 5.41035 6.25652 5.46226 6.20461C5.51417 6.1527 5.54333 6.08229 5.54333 6.00888V3.1732H8.93341V8.99016H8.93517C8.93672 9.0624 8.96648 9.13116 9.0181 9.18173C9.06971 9.2323 9.13907 9.26065 9.21133 9.26072H10.2497C10.4006 9.26072 10.5225 9.14008 10.5259 8.99016H10.5265V2.50008H10.5257V1.85688C10.5257 1.78347 10.4966 1.71306 10.4447 1.66115C10.3927 1.60924 10.3223 1.58008 10.2489 1.58008H4.98973L0.837891 5.73208V15.1431C0.837891 15.2961 0.961731 15.4199 1.11469 15.4199H10.2489C10.3223 15.4199 10.3927 15.3908 10.4447 15.3388C10.4966 15.2869 10.5257 15.2165 10.5257 15.1431V14.7514H10.5265V13.345C10.5265 13.2717 10.4973 13.2014 10.4454 13.1495C10.3936 13.0977 10.3232 13.0686 10.2499 13.0686Z" fill="#3C3B39"/>
<path d="M4.18846 10.7673C4.32142 10.7673 4.43646 10.867 4.47422 10.982L4.8595 10.8026C4.77102 10.599 4.57614 10.373 4.18862 10.373C3.72574 10.373 3.37598 10.6809 3.37598 11.137C3.37598 11.591 3.7259 11.9009 4.18862 11.9009C4.57614 11.9009 4.77326 11.6662 4.8595 11.469L4.47422 11.2919C4.43662 11.407 4.32142 11.5066 4.18846 11.5066C3.97374 11.5066 3.82974 11.3428 3.82974 11.1369C3.82974 10.931 3.97358 10.7673 4.18846 10.7673ZM5.70462 11.5247C5.5273 11.5249 5.35675 11.4567 5.22846 11.3343L4.99598 11.6665C5.1531 11.8082 5.36798 11.9012 5.68254 11.9012C6.07886 11.9012 6.3203 11.713 6.3203 11.3874C6.3203 10.8383 5.4987 10.9578 5.4987 10.8183C5.4987 10.7807 5.52302 10.7519 5.61166 10.7519C5.75118 10.7519 5.91726 10.8006 6.04558 10.898L6.28478 10.5814C6.11646 10.4441 5.8995 10.3754 5.65806 10.3754C5.25278 10.3754 5.04478 10.6146 5.04478 10.8649C5.04478 11.4473 5.86846 11.3033 5.86846 11.445C5.86846 11.5025 5.78878 11.5247 5.70462 11.5247ZM6.92302 10.3975H6.41598L6.96062 11.8745H7.52318L8.06782 10.3975H7.56078L7.2419 11.3918L6.92302 10.3975Z" fill="#3C3B39"/>
</svg>
