<svg width="21" height="20" viewBox="0 0 21 20" fill="none" xmlns="http://www.w3.org/2000/svg">
<path fill-rule="evenodd" clip-rule="evenodd" d="M3.78042 2.21967C3.48753 1.92678 3.01265 1.92678 2.71976 2.21967C2.42687 2.51256 2.42687 2.98744 2.71976 3.28033L17.2198 17.7803C17.5127 18.0732 17.9875 18.0732 18.2804 17.7803C18.5733 17.4874 18.5733 17.0126 18.2804 16.7197L16.5352 14.9745C18.0065 13.8594 19.1596 12.3465 19.8344 10.5959C19.9815 10.2144 19.9817 9.79127 19.8348 9.40962C18.3921 5.66051 14.7561 3 10.4987 3C8.78216 3 7.16666 3.43249 5.75519 4.19444L3.78042 2.21967ZM8.25203 6.69128L9.34376 7.78301C9.6896 7.60223 10.083 7.5 10.5003 7.5C11.881 7.5 13.0003 8.61929 13.0003 10C13.0003 10.4173 12.898 10.8107 12.7173 11.1565L13.8092 12.2484C14.2455 11.6077 14.5005 10.8336 14.5005 10C14.5005 7.79086 12.7096 6 10.5005 6C9.66684 6 8.89278 6.25501 8.25203 6.69128Z" fill="#1A1A1A"/>
<path d="M11.2485 13.9302L13.7712 16.4529C12.7463 16.8074 11.6459 17 10.5005 17C6.24307 17 2.60707 14.3395 1.16435 10.5904C1.01748 10.2087 1.01761 9.78563 1.1647 9.40408C1.65613 8.12932 2.40117 6.98057 3.338 6.01969L6.57029 9.25198C6.52445 9.4943 6.50046 9.74435 6.50046 10C6.50046 12.2091 8.29133 14 10.5005 14C10.7561 14 11.0062 13.976 11.2485 13.9302Z" fill="#1A1A1A"/>
</svg>
