<svg width="18" height="13" viewBox="0 0 18 13" fill="none" xmlns="http://www.w3.org/2000/svg">
<path fill-rule="evenodd" clip-rule="evenodd" d="M8.99998 0.875C5.59902 0.875 2.64039 2.76405 1.1188 5.54631C0.793739 6.14068 0.793734 6.85919 1.11878 7.45357C2.64036 10.2359 5.59902 12.125 9.00003 12.125C12.401 12.125 15.3596 10.2359 16.8812 7.45369C17.2063 6.85932 17.2063 6.14082 16.8812 5.54644C15.3596 2.76411 12.401 0.875 8.99998 0.875ZM9 4.625C7.96447 4.625 7.125 5.46447 7.125 6.5C7.125 7.53553 7.96447 8.375 9 8.375C9.56705 8.375 10.0753 8.12328 10.4191 7.72549C9.84734 7.61063 9.41667 7.10561 9.41667 6.5C9.41667 5.89439 9.84734 5.38937 10.4191 5.27451C10.0753 4.87672 9.56705 4.625 9 4.625ZM5.875 6.5C5.875 4.77411 7.27411 3.375 9 3.375C10.7259 3.375 12.125 4.77411 12.125 6.5C12.125 8.22589 10.7259 9.625 9 9.625C7.27411 9.625 5.875 8.22589 5.875 6.5Z" fill="#10386B"/>
</svg>
