<svg width="20" height="20" viewBox="0 0 20 20" fill="none" xmlns="http://www.w3.org/2000/svg">
<path d="M16.6666 9.99967H8.74992M14.9999 12.4997L17.4999 9.99967L14.9999 7.49967M10.8333 5.83301V4.99967C10.8333 4.55765 10.6577 4.13372 10.3451 3.82116C10.0325 3.5086 9.60861 3.33301 9.16659 3.33301H4.99992C4.55789 3.33301 4.13397 3.5086 3.82141 3.82116C3.50885 4.13372 3.33325 4.55765 3.33325 4.99967V14.9997C3.33325 15.4417 3.50885 15.8656 3.82141 16.1782C4.13397 16.4907 4.55789 16.6663 4.99992 16.6663H9.16659C9.60861 16.6663 10.0325 16.4907 10.3451 16.1782C10.6577 15.8656 10.8333 15.4417 10.8333 14.9997V14.1663" stroke="#DD1104" stroke-width="1.5" stroke-linecap="round" stroke-linejoin="round"/>
</svg>
