<svg width="20" height="20" viewBox="0 0 20 20" fill="none" xmlns="http://www.w3.org/2000/svg">
<path d="M13.1474 14.3343C13.2585 14.2232 13.1474 14.3343 12.8142 13.3345C12.3926 12.0699 11.4811 11.335 9.14828 11.335C7.71613 11.335 6.97741 11.662 6.51043 12.015C6.26359 12.2016 6.14893 12.5086 6.14893 12.818V16.4928C6.14893 16.995 6.46839 17.4445 6.95151 17.5815C8.42444 17.9991 10.7173 18.442 13.1474 18.0002C16.0801 17.467 17.0513 16.0006 17.4798 15.0008C18.4796 12.668 17.1466 11.8015 16.48 12.3347C14.8137 13.6678 14.8137 14.3343 13.1474 14.3343ZM13.1474 14.3343H10.1481" stroke="#636260" stroke-width="1.5" stroke-linecap="round"/>
<path d="M2.1499 11.668C2.1499 10.9318 2.74673 10.335 3.48295 10.335H4.81599C5.55222 10.335 6.14904 10.9318 6.14904 11.668V17.0002C6.14904 17.7364 5.55222 18.3332 4.816 18.3332H3.48295C2.74673 18.3332 2.1499 17.7364 2.1499 17.0002V11.668Z" stroke="#636260" stroke-width="1.5"/>
<path d="M17.2271 4.11395L9.1665 4.11395M10.7018 8.1922H15.6917C16.5397 8.1922 17.2271 7.46184 17.2271 6.5609V3.2983C17.2271 2.39735 16.5397 1.66699 15.6917 1.66699H10.7018C9.8539 1.66699 9.1665 2.39735 9.1665 3.2983V6.5609C9.1665 7.46184 9.8539 8.1922 10.7018 8.1922Z" stroke="#636260" stroke-width="1.5"/>
</svg>
