<svg width="20" height="20" viewBox="0 0 20 20" fill="none" xmlns="http://www.w3.org/2000/svg">
<path d="M5.75 11.25V11.75H6.25H7.5H8V11.25V8.75V8.25H7.5H6.25H5.75V8.75V11.25ZM12 11.25V11.75H12.5H13.75H14.25V11.25V8.75V8.25H13.75H12.5H12V8.75V11.25ZM3.06227 17L4.19462 7.375H15.8054L16.9377 17H3.06227ZM7.04195 5.125H6.78868C6.89405 4.44821 7.21153 3.81727 7.7019 3.3269C8.3114 2.71741 9.13805 2.375 10 2.375C10.862 2.375 11.6886 2.71741 12.2981 3.3269C12.7885 3.81727 13.106 4.44821 13.2113 5.125H12.9581C12.8549 4.51485 12.5647 3.94703 12.1213 3.50368C11.5587 2.94107 10.7956 2.625 10 2.625C9.20435 2.625 8.44129 2.94107 7.87868 3.50368C7.43533 3.94703 7.14508 4.51485 7.04195 5.125Z" fill="#010066" stroke="#010066"/>
</svg>
