<svg width="20" height="20" viewBox="0 0 20 20" fill="none" xmlns="http://www.w3.org/2000/svg">
<mask id="path-1-inside-1_1439_13101" fill="white">
<path d="M6.24981 5.625V5.18875C6.24981 3.02125 7.91981 1.25 9.99981 1.25C12.0798 1.25 13.7498 3.02125 13.7498 5.18875V5.62625H16.3098C16.4646 5.6264 16.6139 5.68402 16.7287 5.78794C16.8435 5.89187 16.9156 6.03469 16.9311 6.18875L18.0561 17.4388C18.0648 17.5256 18.0552 17.6133 18.028 17.6963C18.0008 17.7792 17.9564 17.8555 17.8979 17.9203C17.8394 17.9851 17.7679 18.0368 17.6882 18.0723C17.6084 18.1078 17.5221 18.1262 17.4348 18.1263H2.56481C2.47752 18.1262 2.39121 18.1078 2.31145 18.0723C2.23168 18.0368 2.16024 17.9851 2.10171 17.9203C2.04318 17.8555 1.99887 17.7792 1.97163 17.6963C1.9444 17.6133 1.93483 17.5256 1.94356 17.4388L3.06856 6.18875C3.08405 6.03469 3.15616 5.89187 3.27094 5.78794C3.38571 5.68402 3.53498 5.6264 3.68981 5.62625H6.24981V5.625ZM7.49981 5.625H12.4998V5.18875C12.4998 3.69625 11.3723 2.5 9.99981 2.5C8.62731 2.5 7.49981 3.69625 7.49981 5.18875V5.62625V5.625ZM6.24981 6.875H4.25606L3.25606 16.875H16.7436L15.7423 6.875H13.7498V8.75C13.7498 8.91576 13.684 9.07473 13.5668 9.19194C13.4495 9.30915 13.2906 9.375 13.1248 9.375C12.9591 9.375 12.8001 9.30915 12.6829 9.19194C12.5657 9.07473 12.4998 8.91576 12.4998 8.75V6.875H7.49981V8.75C7.49981 8.91576 7.43396 9.07473 7.31675 9.19194C7.19954 9.30915 7.04057 9.375 6.87481 9.375C6.70905 9.375 6.55008 9.30915 6.43287 9.19194C6.31566 9.07473 6.24981 8.91576 6.24981 8.75V6.875Z"/>
</mask>
<path d="M6.24981 5.625V5.18875C6.24981 3.02125 7.91981 1.25 9.99981 1.25C12.0798 1.25 13.7498 3.02125 13.7498 5.18875V5.62625H16.3098C16.4646 5.6264 16.6139 5.68402 16.7287 5.78794C16.8435 5.89187 16.9156 6.03469 16.9311 6.18875L18.0561 17.4388C18.0648 17.5256 18.0552 17.6133 18.028 17.6963C18.0008 17.7792 17.9564 17.8555 17.8979 17.9203C17.8394 17.9851 17.7679 18.0368 17.6882 18.0723C17.6084 18.1078 17.5221 18.1262 17.4348 18.1263H2.56481C2.47752 18.1262 2.39121 18.1078 2.31145 18.0723C2.23168 18.0368 2.16024 17.9851 2.10171 17.9203C2.04318 17.8555 1.99887 17.7792 1.97163 17.6963C1.9444 17.6133 1.93483 17.5256 1.94356 17.4388L3.06856 6.18875C3.08405 6.03469 3.15616 5.89187 3.27094 5.78794C3.38571 5.68402 3.53498 5.6264 3.68981 5.62625H6.24981V5.625ZM7.49981 5.625H12.4998V5.18875C12.4998 3.69625 11.3723 2.5 9.99981 2.5C8.62731 2.5 7.49981 3.69625 7.49981 5.18875V5.62625V5.625ZM6.24981 6.875H4.25606L3.25606 16.875H16.7436L15.7423 6.875H13.7498V8.75C13.7498 8.91576 13.684 9.07473 13.5668 9.19194C13.4495 9.30915 13.2906 9.375 13.1248 9.375C12.9591 9.375 12.8001 9.30915 12.6829 9.19194C12.5657 9.07473 12.4998 8.91576 12.4998 8.75V6.875H7.49981V8.75C7.49981 8.91576 7.43396 9.07473 7.31675 9.19194C7.19954 9.30915 7.04057 9.375 6.87481 9.375C6.70905 9.375 6.55008 9.30915 6.43287 9.19194C6.31566 9.07473 6.24981 8.91576 6.24981 8.75V6.875Z" fill="#636260"/>
<path d="M13.7498 5.62625H10.7498V8.62625H13.7498V5.62625ZM16.3098 5.62625L16.3128 2.62625H16.3098V5.62625ZM16.9311 6.18875L19.9162 5.89024L19.916 5.88875L16.9311 6.18875ZM18.0561 17.4388L15.0709 17.7373L15.0711 17.7388L18.0561 17.4388ZM17.4348 18.1263L17.4348 21.1263L17.4378 21.1262L17.4348 18.1263ZM2.56481 18.1263L2.56185 21.1263H2.56481V18.1263ZM1.94356 17.4388L4.92853 17.7388L4.92867 17.7373L1.94356 17.4388ZM3.06856 6.18875L0.0835997 5.88875L0.083451 5.89024L3.06856 6.18875ZM3.68981 5.62625L3.68981 2.62625L3.68685 2.62625L3.68981 5.62625ZM6.24981 5.62625V8.62625H9.24981V5.62625H6.24981ZM7.49981 5.625V2.625H4.49981V5.625H7.49981ZM12.4998 5.625V8.625H15.4998V5.625H12.4998ZM6.24981 6.875H9.24981V3.875H6.24981V6.875ZM4.25606 6.875V3.875H1.5411L1.27095 6.57649L4.25606 6.875ZM3.25606 16.875L0.270951 16.5765L-0.0588999 19.875H3.25606V16.875ZM16.7436 16.875V19.875H20.0589L19.7286 16.5761L16.7436 16.875ZM15.7423 6.875L18.7274 6.57612L18.4569 3.875H15.7423V6.875ZM13.7498 6.875V3.875H10.7498V6.875H13.7498ZM12.4998 6.875H15.4998V3.875H12.4998V6.875ZM7.49981 6.875V3.875H4.49981V6.875H7.49981ZM9.24981 5.625V5.18875H3.24981V5.625H9.24981ZM9.24981 5.18875C9.24981 4.52884 9.72209 4.25 9.99981 4.25V-1.75C6.11753 -1.75 3.24981 1.51366 3.24981 5.18875H9.24981ZM9.99981 4.25C10.2775 4.25 10.7498 4.52884 10.7498 5.18875H16.7498C16.7498 1.51366 13.8821 -1.75 9.99981 -1.75V4.25ZM10.7498 5.18875V5.62625H16.7498V5.18875H10.7498ZM13.7498 8.62625H16.3098V2.62625H13.7498V8.62625ZM16.3069 8.62625C15.7185 8.62567 15.1513 8.40671 14.7151 8.01181L18.7422 3.56408C18.0765 2.96133 17.2108 2.62714 16.3128 2.62625L16.3069 8.62625ZM14.7151 8.01181C14.279 7.6169 14.0049 7.07416 13.9461 6.48875L19.916 5.88875C19.8262 4.99522 19.4079 4.16683 18.7422 3.56408L14.7151 8.01181ZM13.946 6.48726L15.071 17.7373L21.0412 17.1402L19.9162 5.89024L13.946 6.48726ZM15.0711 17.7388C15.0379 17.4087 15.0743 17.0753 15.1778 16.7602L20.8782 18.6323C21.0362 18.1513 21.0917 17.6425 21.041 17.1387L15.0711 17.7388ZM15.1778 16.7602C15.2813 16.445 15.4497 16.155 15.6721 15.9089L20.1238 19.9316C20.4632 19.556 20.7202 19.1134 20.8782 18.6323L15.1778 16.7602ZM15.6721 15.9089C15.8945 15.6628 16.166 15.466 16.4691 15.3312L18.9073 20.8134C19.3699 20.6077 19.7843 20.3073 20.1238 19.9316L15.6721 15.9089ZM16.4691 15.3312C16.7721 15.1964 17.1001 15.1266 17.4318 15.1263L17.4378 21.1262C17.9441 21.1257 18.4447 21.0192 18.9073 20.8134L16.4691 15.3312ZM17.4348 15.1263H2.56481V21.1263H17.4348V15.1263ZM2.56777 15.1263C2.89952 15.1266 3.22749 15.1964 3.53057 15.3312L1.09233 20.8134C1.55492 21.0192 2.05551 21.1257 2.56185 21.1262L2.56777 15.1263ZM3.53057 15.3312C3.83365 15.466 4.10515 15.6628 4.32756 15.9089L-0.124143 19.9316C0.215326 20.3073 0.629718 20.6077 1.09233 20.8134L3.53057 15.3312ZM4.32756 15.9089C4.54997 16.155 4.71835 16.445 4.82185 16.7602L-0.878585 18.6323C-0.720603 19.1134 -0.463604 19.556 -0.124143 19.9316L4.32756 15.9089ZM4.82185 16.7602C4.92536 17.0753 4.9617 17.4087 4.92852 17.7388L-1.0414 17.1387C-1.09203 17.6425 -1.03657 18.1513 -0.878585 18.6323L4.82185 16.7602ZM4.92867 17.7373L6.05367 6.48726L0.083451 5.89024L-1.04155 17.1402L4.92867 17.7373ZM6.05353 6.48875C5.99469 7.07417 5.72065 7.6169 5.2845 8.01181L1.25738 3.56408C0.591676 4.16683 0.173403 4.99522 0.0836001 5.88875L6.05353 6.48875ZM5.2845 8.01181C4.84835 8.40671 4.28114 8.62567 3.69278 8.62625L3.68685 2.62625C2.78882 2.62714 1.92308 2.96133 1.25738 3.56408L5.2845 8.01181ZM3.68981 8.62625H6.24981V2.62625H3.68981V8.62625ZM9.24981 5.62625V5.625H3.24981V5.62625H9.24981ZM7.49981 8.625H12.4998V2.625H7.49981V8.625ZM15.4998 5.625V5.18875H9.49981V5.625H15.4998ZM15.4998 5.18875C15.4998 2.2365 13.2196 -0.5 9.99981 -0.5V5.5C9.7865 5.5 9.63737 5.40236 9.57176 5.33209C9.50785 5.26365 9.49981 5.20464 9.49981 5.18875H15.4998ZM9.99981 -0.5C6.78 -0.5 4.49981 2.2365 4.49981 5.18875H10.4998C10.4998 5.20464 10.4918 5.26366 10.4279 5.33209C10.3623 5.40236 10.2131 5.5 9.99981 5.5V-0.5ZM4.49981 5.18875V5.62625H10.4998V5.18875H4.49981ZM10.4998 5.62625V5.625H4.49981V5.62625H10.4998ZM6.24981 3.875H4.25606V9.875H6.24981V3.875ZM1.27095 6.57649L0.270951 16.5765L6.24117 17.1735L7.24117 7.17351L1.27095 6.57649ZM3.25606 19.875H16.7436V13.875H3.25606V19.875ZM19.7286 16.5761L18.7274 6.57612L12.7572 7.17388L13.7585 17.1739L19.7286 16.5761ZM15.7423 3.875H13.7498V9.875H15.7423V3.875ZM10.7498 6.875V8.75H16.7498V6.875H10.7498ZM10.7498 8.75C10.7498 8.12012 11 7.51602 11.4454 7.07062L15.6881 11.3133C16.3679 10.6334 16.7498 9.7114 16.7498 8.75H10.7498ZM11.4454 7.07062C11.8908 6.62522 12.4949 6.375 13.1248 6.375V12.375C14.0862 12.375 15.0083 11.9931 15.6881 11.3133L11.4454 7.07062ZM13.1248 6.375C13.7547 6.375 14.3588 6.62522 14.8042 7.07062L10.5615 11.3133C11.2414 11.9931 12.1634 12.375 13.1248 12.375V6.375ZM14.8042 7.07062C15.2496 7.51602 15.4998 8.12012 15.4998 8.75H9.49981C9.49981 9.7114 9.88173 10.6334 10.5615 11.3133L14.8042 7.07062ZM15.4998 8.75V6.875H9.49981V8.75H15.4998ZM12.4998 3.875H7.49981V9.875H12.4998V3.875ZM4.49981 6.875V8.75H10.4998V6.875H4.49981ZM4.49981 8.75C4.49981 8.12011 4.75004 7.51602 5.19543 7.07062L9.43807 11.3133C10.1179 10.6334 10.4998 9.71141 10.4998 8.75H4.49981ZM5.19543 7.07062C5.64083 6.62522 6.24492 6.375 6.87481 6.375V12.375C7.83622 12.375 8.75826 11.9931 9.43807 11.3133L5.19543 7.07062ZM6.87481 6.375C7.5047 6.375 8.10879 6.62522 8.55419 7.07062L4.31155 11.3133C4.99137 11.9931 5.9134 12.375 6.87481 12.375V6.375ZM8.55419 7.07062C8.99959 7.51602 9.24981 8.12011 9.24981 8.75H3.24981C3.24981 9.71141 3.63173 10.6334 4.31155 11.3133L8.55419 7.07062ZM9.24981 8.75V6.875H3.24981V8.75H9.24981Z" fill="#636260" mask="url(#path-1-inside-1_1439_13101)"/>
</svg>
