<svg width="20" height="20" viewBox="0 0 20 20" fill="none" xmlns="http://www.w3.org/2000/svg">
<path d="M1.66675 9.02843C1.66675 6.61065 3.03341 4.92176 5.15841 4.63732C5.37508 4.60176 5.60008 4.58398 5.83341 4.58398H14.1667C14.3834 4.58398 14.5917 4.59286 14.7917 4.62842C16.9417 4.89508 18.3334 6.59287 18.3334 9.02843V13.4729C18.3334 16.1395 16.6667 17.9173 14.1667 17.9173H10.0001H7.91675" stroke="#636260" stroke-width="1.5" stroke-linecap="round" stroke-linejoin="round"/>
<path d="M3.75008 17.084L3.75008 11.6673M3.75008 17.084L5.83341 15.0007M3.75008 17.084L1.66675 15.0007" stroke="#636260" stroke-width="1.5" stroke-linecap="round" stroke-linejoin="round"/>
<path d="M2.79715 5.81677C2.63304 4.33554 3.63014 3.00955 5.02424 2.8551L13.228 1.94618C14.6221 1.79172 15.8853 2.86728 16.0494 4.34851L16.1237 5.01901" stroke="#636260" stroke-width="1.5"/>
<path d="M15.0002 9.58398H17.6192C18.0137 9.58398 18.3335 9.90378 18.3335 10.2983V12.203C18.3335 12.5975 18.0137 12.9173 17.6192 12.9173H15.0002C14.0797 12.9173 13.3335 12.1711 13.3335 11.2507C13.3335 10.3302 14.0797 9.58398 15.0002 9.58398Z" stroke="#636260" stroke-width="1.5" stroke-linecap="round"/>
</svg>
