<svg width="20" height="20" viewBox="0 0 20 20" fill="none" xmlns="http://www.w3.org/2000/svg">
<path fill-rule="evenodd" clip-rule="evenodd" d="M5.06054 4.0188C5.31167 3.97795 5.56943 3.95801 5.83317 3.95801H14.1665C14.3926 3.95801 14.6395 3.96672 14.8899 4.00984C17.4138 4.33249 18.9582 6.35274 18.9582 9.01619V9.05113C18.8171 8.99094 18.6643 8.95801 18.5047 8.95801H15.5636C14.4468 8.95801 13.5415 9.98402 13.5415 11.2497C13.5415 12.5153 14.4468 13.5413 15.5636 13.5413H18.5047C18.6643 13.5413 18.8171 13.5084 18.9582 13.4482V13.4832C18.9582 14.9371 18.5052 16.2024 17.656 17.1129C16.8005 18.03 15.5839 18.5413 14.1665 18.5413H5.83317C5.34538 18.5413 4.88138 18.4808 4.44769 18.364C4.56734 18.2987 4.67978 18.2155 4.78103 18.1142L6.86437 16.0309C7.43388 15.4614 7.43388 14.538 6.86437 13.9685C6.41642 13.5205 5.74957 13.4249 5.20817 13.6816V11.6663C5.20817 10.8609 4.55525 10.208 3.74984 10.208C2.94442 10.208 2.2915 10.8609 2.2915 11.6663V13.6816C1.89797 13.495 1.43816 13.4946 1.04431 13.6803C1.04244 13.615 1.0415 13.5493 1.0415 13.4832V9.01619C1.0415 6.37108 2.55993 4.35985 5.06054 4.0188ZM14.6444 11.2497C14.6444 11.825 15.0559 12.2913 15.5636 12.2913H18.5047C18.6063 12.2913 18.6886 12.1981 18.6886 12.083V10.4163C18.6886 10.3013 18.6063 10.208 18.5047 10.208H15.5636C15.0559 10.208 14.6444 10.6744 14.6444 11.2497Z" fill="#010066"/>
<path fill-rule="evenodd" clip-rule="evenodd" d="M3.3079 17.5249C3.55197 17.769 3.9477 17.769 4.19178 17.5249L6.27511 15.4416C6.51919 15.1975 6.51919 14.8018 6.27511 14.5577C6.03103 14.3137 5.63531 14.3137 5.39123 14.5577L4.37484 15.5741V11.6663C4.37484 11.3212 4.09502 11.0413 3.74984 11.0413C3.40466 11.0413 3.12484 11.3212 3.12484 11.6663L3.12484 15.5741L2.10845 14.5577C1.86437 14.3137 1.46864 14.3137 1.22456 14.5577C0.980484 14.8018 0.980484 15.1975 1.22456 15.4416L3.3079 17.5249Z" fill="#010066"/>
<path d="M2.15572 4.76704C2.84625 3.92034 3.83545 3.35257 5.06031 3.18552C5.31144 3.14467 5.5692 3.12472 5.83294 3.12472H14.1663C14.3923 3.12472 14.6393 3.13344 14.8896 3.17656C15.5708 3.26364 16.1807 3.47439 16.7081 3.78808L16.6702 3.4462C16.4721 1.65791 14.9309 0.295155 13.1588 0.491493L4.95504 1.40041C3.27749 1.58627 2.10772 3.09007 2.15572 4.76704Z" fill="#010066"/>
</svg>
