<svg width="20" height="20" viewBox="0 0 20 20" fill="none" xmlns="http://www.w3.org/2000/svg">
<path d="M15.8333 2.5H14.9999C14.0794 2.5 13.3333 3.24619 13.3333 4.16667V15.8333C13.3333 16.7538 14.0794 17.5 14.9999 17.5H15.8333C16.7537 17.5 17.4999 16.7538 17.4999 15.8333V4.16667C17.4999 3.24619 16.7537 2.5 15.8333 2.5Z" fill="#010066"/>
<path d="M10.4167 7.5H9.58341C8.66294 7.5 7.91675 8.24619 7.91675 9.16667V15.8333C7.91675 16.7538 8.66294 17.5 9.58341 17.5H10.4167C11.3372 17.5 12.0834 16.7538 12.0834 15.8333V9.16667C12.0834 8.24619 11.3372 7.5 10.4167 7.5Z" fill="#010066"/>
<path d="M5 13.333H4.16667C3.24619 13.333 2.5 14.0792 2.5 14.9997V15.833C2.5 16.7535 3.24619 17.4997 4.16667 17.4997H5C5.92047 17.4997 6.66667 16.7535 6.66667 15.833V14.9997C6.66667 14.0792 5.92047 13.333 5 13.333Z" fill="#010066"/>
</svg>
