<svg width="20" height="20" viewBox="0 0 20 20" fill="none" xmlns="http://www.w3.org/2000/svg">
<path fill-rule="evenodd" clip-rule="evenodd" d="M13.0001 1.66699C12.6465 1.66699 12.3073 1.80747 12.0573 2.05752C11.8072 2.30757 11.6667 2.6467 11.6667 3.00033V6.66699H8.00008C7.64646 6.66699 7.30732 6.80746 7.05727 7.05752C6.80722 7.30757 6.66675 7.64671 6.66675 8.00032V12.5003H3.00008C2.64646 12.5003 2.30732 12.6408 2.05727 12.8908C1.80722 13.1409 1.66675 13.48 1.66675 13.8337V17.0003C1.66675 17.3539 1.80722 17.6931 2.05727 17.9431C2.30732 18.1932 2.64646 18.3337 3.00008 18.3337H17.0001C17.3537 18.3337 17.6928 18.1932 17.9429 17.9431C18.1929 17.6931 18.3334 17.3539 18.3334 17.0003V3.00033C18.3334 2.6467 18.1929 2.30757 17.9429 2.05752C17.6928 1.80747 17.3537 1.66699 17.0001 1.66699H13.0001ZM8.33341 8.33366H11.6667V16.667H8.33341V8.33366ZM16.6667 16.667H13.3334V3.33366H16.6667V16.667ZM6.66675 14.167V16.667H3.33341V14.167H6.66675Z" fill="#636260"/>
</svg>
