<svg width="20" height="20" viewBox="0 0 20 20" fill="none" xmlns="http://www.w3.org/2000/svg">
<g clip-path="url(#clip0_1456_14997)">
<path fill-rule="evenodd" clip-rule="evenodd" d="M13.9286 1.07143C13.9286 0.787268 14.0415 0.514746 14.2424 0.313814C14.4433 0.112882 14.7158 0 15 0L17.5 0C18.88 0 20 1.12 20 2.5V5C20 5.28416 19.8871 5.55668 19.6862 5.75761C19.4853 5.95855 19.2127 6.07143 18.9286 6.07143C18.6444 6.07143 18.3719 5.95855 18.171 5.75761C17.97 5.55668 17.8571 5.28416 17.8571 5V2.5C17.8571 2.40528 17.8195 2.31444 17.7525 2.24746C17.6856 2.18048 17.5947 2.14286 17.5 2.14286H15C14.7158 2.14286 14.4433 2.02997 14.2424 1.82904C14.0415 1.62811 13.9286 1.35559 13.9286 1.07143ZM0 10C0 9.71584 0.112882 9.44332 0.313814 9.24239C0.514746 9.04145 0.787268 8.92857 1.07143 8.92857H18.9286C19.2127 8.92857 19.4853 9.04145 19.6862 9.24239C19.8871 9.44332 20 9.71584 20 10C20 10.2842 19.8871 10.5567 19.6862 10.7576C19.4853 10.9585 19.2127 11.0714 18.9286 11.0714H1.07143C0.787268 11.0714 0.514746 10.9585 0.313814 10.7576C0.112882 10.5567 0 10.2842 0 10ZM2.14286 2.5C2.14286 2.40528 2.18048 2.31444 2.24746 2.24746C2.31444 2.18048 2.40528 2.14286 2.5 2.14286H5C5.28416 2.14286 5.55668 2.02997 5.75761 1.82904C5.95855 1.62811 6.07143 1.35559 6.07143 1.07143C6.07143 0.787268 5.95855 0.514746 5.75761 0.313814C5.55668 0.112882 5.28416 0 5 0L2.5 0C1.83696 0 1.20107 0.263392 0.732233 0.732233C0.263392 1.20107 0 1.83696 0 2.5L0 5C0 5.28416 0.112882 5.55668 0.313814 5.75761C0.514746 5.95855 0.787268 6.07143 1.07143 6.07143C1.35559 6.07143 1.62811 5.95855 1.82904 5.75761C2.02997 5.55668 2.14286 5.28416 2.14286 5V2.5ZM18.9286 13.9286C19.2127 13.9286 19.4853 14.0415 19.6862 14.2424C19.8871 14.4433 20 14.7158 20 15V17.5C20 18.163 19.7366 18.7989 19.2678 19.2678C18.7989 19.7366 18.163 20 17.5 20H15C14.7158 20 14.4433 19.8871 14.2424 19.6862C14.0415 19.4853 13.9286 19.2127 13.9286 18.9286C13.9286 18.6444 14.0415 18.3719 14.2424 18.171C14.4433 17.97 14.7158 17.8571 15 17.8571H17.5C17.5947 17.8571 17.6856 17.8195 17.7525 17.7525C17.8195 17.6856 17.8571 17.5947 17.8571 17.5V15C17.8571 14.7158 17.97 14.4433 18.171 14.2424C18.3719 14.0415 18.6444 13.9286 18.9286 13.9286ZM2.14286 15C2.14286 14.7158 2.02997 14.4433 1.82904 14.2424C1.62811 14.0415 1.35559 13.9286 1.07143 13.9286C0.787268 13.9286 0.514746 14.0415 0.313814 14.2424C0.112882 14.4433 0 14.7158 0 15L0 17.5C0 18.88 1.12 20 2.5 20H5C5.28416 20 5.55668 19.8871 5.75761 19.6862C5.95855 19.4853 6.07143 19.2127 6.07143 18.9286C6.07143 18.6444 5.95855 18.3719 5.75761 18.171C5.55668 17.97 5.28416 17.8571 5 17.8571H2.5C2.40528 17.8571 2.31444 17.8195 2.24746 17.7525C2.18048 17.6856 2.14286 17.5947 2.14286 17.5V15Z" fill="black"/>
</g>
<defs>
<clipPath id="clip0_1456_14997">
<rect width="20" height="20" fill="white"/>
</clipPath>
</defs>
</svg>
