<svg width="20" height="20" viewBox="0 0 20 20" fill="none" xmlns="http://www.w3.org/2000/svg">
<g clip-path="url(#clip0_1433_12849)">
<path fill-rule="evenodd" clip-rule="evenodd" d="M9.99992 6.66634C9.11586 6.66634 8.26802 7.01753 7.6429 7.64265C7.01777 8.26777 6.66658 9.11562 6.66658 9.99967C6.66658 10.8837 7.01777 11.7316 7.6429 12.3567C8.26802 12.9818 9.11586 13.333 9.99992 13.333C10.884 13.333 11.7318 12.9818 12.3569 12.3567C12.9821 11.7316 13.3333 10.8837 13.3333 9.99967C13.3333 9.11562 12.9821 8.26777 12.3569 7.64265C11.7318 7.01753 10.884 6.66634 9.99992 6.66634ZM8.82141 8.82116C9.13397 8.5086 9.55789 8.33301 9.99992 8.33301C10.4419 8.33301 10.8659 8.5086 11.1784 8.82116C11.491 9.13372 11.6666 9.55765 11.6666 9.99967C11.6666 10.4417 11.491 10.8656 11.1784 11.1782C10.8659 11.4907 10.4419 11.6663 9.99992 11.6663C9.55789 11.6663 9.13397 11.4907 8.82141 11.1782C8.50885 10.8656 8.33325 10.4417 8.33325 9.99967C8.33325 9.55765 8.50885 9.13372 8.82141 8.82116Z" fill="#636260"/>
<path fill-rule="evenodd" clip-rule="evenodd" d="M9.15075 0.833008C8.77221 0.833008 8.44123 1.08814 8.34487 1.45421L7.92257 3.05855L6.58087 3.62414L5.55383 2.71041C5.22407 2.41703 4.72276 2.43166 4.41066 2.74375L2.744 4.41042C2.44208 4.71234 2.4172 5.19361 2.68639 5.52505L3.5865 6.6333L3.03453 7.99124L1.47713 8.35483C1.10002 8.44287 0.833252 8.77909 0.833252 9.16634V10.833C0.833252 11.2088 1.08474 11.5381 1.44726 11.637L3.057 12.0761L3.62412 13.4214L2.7113 14.445C2.41729 14.7747 2.43163 15.2766 2.744 15.5889L4.41066 17.2556C4.71299 17.5579 5.19506 17.5824 5.52646 17.3123L6.63432 16.4091L7.95888 16.954L8.35861 18.537C8.45205 18.9071 8.78493 19.1663 9.16658 19.1663H10.8333C11.2148 19.1663 11.5475 18.9073 11.6411 18.5374L12.0419 16.9537L13.4107 16.3868C13.5485 16.5022 13.7065 16.6379 13.8637 16.7748C14.0199 16.9108 14.1651 17.039 14.2714 17.1333C14.3244 17.1804 14.3677 17.2189 14.3975 17.2456L14.4428 17.2861C14.7723 17.5817 15.2761 17.5686 15.5892 17.2556L17.2558 15.5889C17.5625 15.2822 17.5827 14.7915 17.3022 14.4607L16.3944 13.3902L16.9561 12.0335L18.5428 11.6212C18.9102 11.5258 19.1666 11.1942 19.1666 10.8147V9.16634C19.1666 8.78524 18.9081 8.4527 18.5387 8.35873L16.9618 7.95754L16.4015 6.60412L17.303 5.53763C17.5827 5.20676 17.5622 4.71677 17.2558 4.41042L15.5892 2.74375C15.2816 2.43616 14.7891 2.4169 14.4585 2.69955L13.3998 3.6044L11.9988 3.02834L11.585 1.45448C11.4888 1.08828 11.1577 0.833008 10.7791 0.833008H9.15075ZM15.5346 14.9532L14.9644 15.5233L14.9582 15.5179C14.6504 15.2499 14.254 14.9108 14.0304 14.7509C13.7964 14.5836 13.4926 14.5489 13.2269 14.6589L11.0177 15.5739C10.7746 15.6746 10.5933 15.8843 10.5287 16.1394L10.1845 17.4997H9.81565L9.47206 16.139C9.40742 15.883 9.22528 15.6728 8.98111 15.5723L6.80944 14.679C6.52666 14.5627 6.20288 14.6106 5.96588 14.8038L5.05687 15.5448L4.47901 14.9669L5.21854 14.1376C5.43263 13.8976 5.48943 13.5557 5.36448 13.2593L4.43531 11.0551C4.3359 10.8193 4.13364 10.6422 3.88674 10.5749L2.49992 10.1966V9.82753L3.83354 9.51619C4.097 9.45468 4.31421 9.2691 4.41608 9.01847L5.31608 6.8043C5.43055 6.52269 5.38259 6.2011 5.19095 5.96514L4.45385 5.05759L5.03332 4.47812L5.86601 5.21894C6.10607 5.43252 6.44754 5.48905 6.74362 5.36423L8.94779 4.43507C9.18603 4.33464 9.36416 4.12932 9.42997 3.8793L9.79312 2.49967H10.1365L10.4923 3.8532C10.5587 4.10585 10.7398 4.31273 10.9814 4.41207L13.2372 5.33957C13.5264 5.45848 13.8578 5.40548 14.0955 5.2023L14.9556 4.46718L15.5354 5.04702L14.801 5.91588C14.5997 6.15399 14.5482 6.48452 14.6674 6.77258L15.5816 8.98091C15.6822 9.22378 15.8914 9.40497 16.1461 9.46978L17.4999 9.81421V10.1702L16.1353 10.5248C15.8824 10.5905 15.6749 10.7711 15.575 11.0126L14.66 13.2226C14.5405 13.5111 14.5924 13.8421 14.7943 14.0803L15.5346 14.9532Z" fill="#636260"/>
</g>
<defs>
<clipPath id="clip0_1433_12849">
<rect width="20" height="20" fill="white"/>
</clipPath>
</defs>
</svg>
