<svg width="16" height="15" viewBox="0 0 16 15" fill="none" xmlns="http://www.w3.org/2000/svg">
<path d="M15.499 5C15.4991 4.86389 15.462 4.73034 15.3918 4.61375L13.36 1.2275C13.2262 1.00613 13.0376 0.822929 12.8125 0.695519C12.5873 0.568109 12.3332 0.500777 12.0745 0.5H3.92352C3.40002 0.5 2.90727 0.779 2.63802 1.22825L0.606274 4.61375C0.536036 4.73034 0.498953 4.86389 0.499024 5C0.499024 5.75375 0.788524 6.4355 1.24902 6.9635V14C1.24902 14.1989 1.32804 14.3897 1.46869 14.5303C1.60935 14.671 1.80011 14.75 1.99902 14.75H7.99902C8.19794 14.75 8.3887 14.671 8.52935 14.5303C8.67001 14.3897 8.74902 14.1989 8.74902 14V10.25H11.749V14C11.749 14.1989 11.828 14.3897 11.9687 14.5303C12.1093 14.671 12.3001 14.75 12.499 14.75H13.999C14.1979 14.75 14.3887 14.671 14.5294 14.5303C14.67 14.3897 14.749 14.1989 14.749 14V6.9635C15.2095 6.4355 15.499 5.75375 15.499 5ZM13.987 5.18825C13.9409 5.55043 13.7644 5.88339 13.4905 6.12483C13.2166 6.36627 12.8641 6.49964 12.499 6.5C11.6718 6.5 10.999 5.82725 10.999 5C10.999 4.949 10.9803 4.904 10.9698 4.856L10.9848 4.853L10.414 2H12.0745L13.987 5.18825ZM6.50427 5.04875L7.11327 2H8.88402L9.49377 5.04875C9.46752 5.8535 8.80902 6.5 7.99902 6.5C7.18902 6.5 6.53052 5.8535 6.50427 5.04875ZM3.92352 2H5.58402L5.01402 4.853L5.02902 4.856C5.01777 4.904 4.99902 4.949 4.99902 5C4.99902 5.82725 4.32627 6.5 3.49902 6.5C3.13392 6.49964 2.78145 6.36627 2.50757 6.12483C2.23369 5.88339 2.05716 5.55043 2.01102 5.18825L3.92352 2ZM6.49902 11H3.49902V8.75H6.49902V11Z" fill="#3C3B39"/>
</svg>
