<svg width="17" height="13" viewBox="0 0 17 13" fill="none" xmlns="http://www.w3.org/2000/svg">
<path fill-rule="evenodd" clip-rule="evenodd" d="M12.7436 0.525694C12.3843 0.360747 11.9892 0.269531 11.5745 0.269531H3.35702C1.69877 0.269531 0.354492 1.7278 0.354492 3.52667V4.63301H12.6216V4.1462C12.1596 4.37024 11.5905 4.28679 11.2082 3.89586C10.7223 3.39882 10.7223 2.59298 11.2082 2.09595L12.7436 0.525694ZM12.6216 5.66158H0.354492V9.01239C0.354492 10.8113 1.69877 12.2695 3.35702 12.2695H11.5745C13.2327 12.2695 14.577 10.8113 14.577 9.01239V6.9497C14.3755 7.09343 14.1304 7.17772 13.866 7.17772C13.1787 7.17772 12.6216 6.6079 12.6216 5.90499V5.66158Z" fill="#010066"/>
<path fill-rule="evenodd" clip-rule="evenodd" d="M13.6655 0.793549C13.8738 0.580536 14.2115 0.580536 14.4197 0.793549L16.1976 2.61173C16.4058 2.82474 16.4058 3.17011 16.1976 3.38312C15.9893 3.59613 15.6516 3.59613 15.4433 3.38312L14.5759 2.49609V5.90652C14.5759 6.20776 14.3372 6.45197 14.0426 6.45197C13.748 6.45197 13.5093 6.20776 13.5093 5.90652L13.5093 2.49609L12.6419 3.38312C12.4336 3.59613 12.0959 3.59613 11.8877 3.38312C11.6794 3.17011 11.6794 2.82474 11.8877 2.61173L13.6655 0.793549Z" fill="black"/>
</svg>
