<svg width="17" height="17" viewBox="0 0 17 17" fill="none" xmlns="http://www.w3.org/2000/svg">
<path fill-rule="evenodd" clip-rule="evenodd" d="M4.29026 3.20032C4.51453 3.16415 4.74472 3.14648 4.98024 3.14648H12.4221C12.624 3.14648 12.8445 3.1542 13.0681 3.19238C15.322 3.47809 16.7012 5.26703 16.7012 7.62554V7.65585C16.5753 7.60263 16.439 7.57351 16.2965 7.57351H13.67C12.6727 7.57351 11.8643 8.48206 11.8643 9.6028C11.8643 10.7235 12.6727 11.6321 13.67 11.6321H16.2965C16.439 11.6321 16.5753 11.603 16.7012 11.5498V11.5811C16.7012 12.8685 16.2967 13.989 15.5383 14.7952C14.7743 15.6073 13.6879 16.0601 12.4221 16.0601H4.98024C4.54453 16.0601 4.13006 16.0065 3.74268 15.903C4.1475 15.684 4.42215 15.2581 4.42215 14.7686V12.9841C4.90563 13.2114 5.50115 13.1267 5.90117 12.73C6.40976 12.2257 6.40976 11.4081 5.90117 10.9038L4.04071 9.05897C3.53212 8.55467 2.70753 8.55467 2.19894 9.05897L0.701172 10.5441V7.62554C0.701172 5.28327 2.05716 3.50232 4.29026 3.20032ZM0.898124 13.0578C1.08169 13.7039 1.39133 14.2755 1.8175 14.7448V12.9841C1.52914 13.1196 1.20094 13.1442 0.898124 13.0578ZM12.8492 9.6028C12.8492 10.1122 13.2167 10.5252 13.67 10.5252H16.2965C16.3872 10.5252 16.4607 10.4426 16.4607 10.3407V8.86488C16.4607 8.76299 16.3872 8.6804 16.2965 8.6804H13.67C13.2167 8.6804 12.8492 9.09337 12.8492 9.6028Z" fill="#010066"/>
<path fill-rule="evenodd" clip-rule="evenodd" d="M2.72511 9.58202C2.94308 9.36589 3.29647 9.36589 3.51444 9.58202L5.37491 11.4268C5.59287 11.643 5.59287 11.9934 5.37491 12.2095C5.15694 12.4256 4.80354 12.4256 4.58558 12.2095L3.67792 11.3095V14.7699C3.67792 15.0755 3.42803 15.3233 3.11978 15.3233C2.81152 15.3233 2.56164 15.0755 2.56164 14.7699L2.56164 11.3095L1.65398 12.2095C1.43601 12.4256 1.08261 12.4256 0.864647 12.2095C0.64668 11.9934 0.64668 11.643 0.864647 11.4268L2.72511 9.58202Z" fill="#010066"/>
<path d="M1.69658 3.86325C2.31324 3.11349 3.19663 2.61073 4.29045 2.4628C4.51471 2.42663 4.7449 2.40897 4.98043 2.40897H12.4223C12.6242 2.40897 12.8447 2.41668 13.0683 2.45487C13.6766 2.53198 14.2212 2.7186 14.6922 2.99638L14.6584 2.69364C14.4814 1.1101 13.1051 -0.0966317 11.5226 0.0772271L4.19644 0.882082C2.69835 1.04666 1.65372 2.37829 1.69658 3.86325Z" fill="#010066"/>
</svg>
