<svg width="17" height="17" viewBox="0 0 17 17" fill="none" xmlns="http://www.w3.org/2000/svg">
<path fill-rule="evenodd" clip-rule="evenodd" d="M4.29026 3.20032C4.51453 3.16415 4.74472 3.14648 4.98024 3.14648H12.4221C12.624 3.14648 12.8445 3.1542 13.0681 3.19238C15.322 3.47809 16.7012 5.26703 16.7012 7.62554V7.65555C16.5753 7.60235 16.439 7.57324 16.2966 7.57324H13.6701C12.6728 7.57324 11.8643 8.48178 11.8643 9.60253C11.8643 10.7233 12.6728 11.6318 13.6701 11.6318H16.2966C16.439 11.6318 16.5753 11.6027 16.7012 11.5495V11.5811C16.7012 12.8685 16.2967 13.989 15.5383 14.7952C14.7743 15.6073 13.6879 16.0601 12.4221 16.0601H4.98024C4.54441 16.0601 4.12984 16.0064 3.74237 15.9029C3.84949 15.8451 3.95015 15.7712 4.04078 15.6813L5.90124 13.8365C6.40983 13.3322 6.40983 12.5146 5.90124 12.0103C5.50122 11.6136 4.9057 11.5289 4.42222 11.7563V9.97171C4.42222 9.25851 3.83915 8.68035 3.11989 8.68035C2.40064 8.68035 1.81757 9.25851 1.81757 9.97171V11.7563C1.46609 11.591 1.05541 11.5906 0.703662 11.7551C0.702003 11.6975 0.701172 11.6394 0.701172 11.5811V7.62554C0.701172 5.28327 2.05716 3.50232 4.29026 3.20032ZM12.8493 9.60253C12.8493 10.112 13.2167 10.5249 13.6701 10.5249H16.2966C16.3873 10.5249 16.4608 10.4423 16.4608 10.3404V8.86461C16.4608 8.76272 16.3873 8.68013 16.2966 8.68013H13.6701C13.2167 8.68013 12.8493 9.0931 12.8493 9.60253Z" fill="#010066"/>
<path fill-rule="evenodd" clip-rule="evenodd" d="M2.72511 15.1611C2.94308 15.3773 3.29647 15.3773 3.51444 15.1611L5.37491 13.3163C5.59287 13.1002 5.59287 12.7498 5.37491 12.5337C5.15694 12.3175 4.80354 12.3175 4.58558 12.5337L3.67792 13.4337V9.97331C3.67792 9.66765 3.42803 9.41987 3.11978 9.41987C2.81152 9.41987 2.56164 9.66765 2.56164 9.97331L2.56164 13.4337L1.65398 12.5337C1.43601 12.3175 1.08261 12.3175 0.864647 12.5337C0.64668 12.7498 0.64668 13.1002 0.864647 13.3163L2.72511 15.1611Z" fill="#010066"/>
<path d="M1.69658 3.86325C2.31324 3.11349 3.19663 2.61073 4.29045 2.4628C4.51471 2.42663 4.7449 2.40897 4.98043 2.40897H12.4223C12.6242 2.40897 12.8447 2.41668 13.0683 2.45487C13.6766 2.53198 14.2212 2.7186 14.6922 2.99638L14.6584 2.69364C14.4814 1.1101 13.1051 -0.0966317 11.5226 0.0772271L4.19644 0.882082C2.69835 1.04666 1.65372 2.37829 1.69658 3.86325Z" fill="#010066"/>
</svg>
